<!-- Generated by IcoMoon.io -->
<svg version="1.1" xmlns="http://www.w3.org/2000/svg" width="16" height="16" viewBox="0 0 16 16">
<title>greetings</title>
<path fill="#ef9e81" d="M12.318 8.993c0.234-0.839 0.421-1.691 0.562-2.551 0.143-0.326 0.304-0.644 0.481-0.951 0.218-0.378 0.476-0.727 0.715-1.092 0.213-0.326 0.406-0.685 0.429-1.079 0.018-0.307-0.049-0.638-0.255-0.878-0.226-0.266-0.575-0.37-0.915-0.339-0.369 0.031-0.705 0.227-0.991 0.453-0.31 0.248-0.598 0.529-0.871 0.813-0.528 0.55-0.996 1.157-1.399 1.803-0.296-0.115-0.583-0.253-0.869-0.388-0.416-0.198-0.837-0.373-1.285-0.49-0.798-0.208-1.698-0.289-2.481 0.018-0.707 0.279-1.303 0.915-1.313 1.707-0.005 0.313 0.086 0.586 0.237 0.826-0.323 0.177-0.596 0.43-0.765 0.763-0.172 0.339-0.205 0.753-0.065 1.107 0.052 0.13 0.125 0.248 0.213 0.352-0.263 0.24-0.499 0.545-0.609 0.886-0.104 0.323-0.044 0.649 0.127 0.938 0.049 0.081 0.107 0.156 0.169 0.229-0.289 0.253-0.382 0.667-0.296 1.037 0.099 0.435 0.416 0.774 0.757 1.042 0.263 0.206 0.544 0.391 0.835 0.555 0.146 0.091 0.299 0.177 0.453 0.255 0.164 0.081 0.335 0.156 0.51 0.208 0.12 0.036 0.242 0.068 0.364 0.083 0.083 0.010 0.166 0.016 0.25 0.013 0.042 0 0.083-0.003 0.122-0.008 0.114-0.010 0.229-0.042 0.341-0.078 0.078-0.026 0.153-0.060 0.226-0.102 0.057-0.031 0.114-0.065 0.166-0.102 0.328 0.078 0.661 0.122 0.999 0.117 0.72-0.013 1.397-0.305 1.943-0.771 0.601-0.511 1.025-1.191 1.347-1.905 0.362-0.792 0.632-1.634 0.869-2.475z"></path>
<path fill="#c4674e" d="M3.475 11.206c0.498 0.321 1.014 0.616 1.543 0.879 0.261 0.13 0.527 0.256 0.798 0.365 0.268 0.11 0.545 0.204 0.832 0.261 0.266 0.052 0.555 0.078 0.824 0.026 0.167-0.031 0.347-0.073 0.49-0.167 0.086-0.055 0.159-0.125 0.227-0.201 0.060-0.068 0.123-0.141 0.167-0.219 0.070-0.128 0.109-0.271 0.125-0.415 0.044-0.363-0.073-0.739-0.365-0.968-0.042-0.034-0.089-0.065-0.136-0.091-0.036-0.021-0.068 0.034-0.034 0.057 0.169 0.099 0.305 0.24 0.388 0.42 0.070 0.151 0.096 0.324 0.089 0.491-0.008 0.144-0.036 0.287-0.096 0.418-0.026 0.057-0.060 0.11-0.099 0.159-0.070 0.091-0.149 0.177-0.237 0.251-0.125 0.102-0.279 0.146-0.433 0.183-0.255 0.063-0.524 0.055-0.782 0.016-0.558-0.086-1.082-0.326-1.585-0.572-0.516-0.251-1.019-0.53-1.504-0.835-0.060-0.037-0.117-0.076-0.177-0.112-0.037-0.024-0.070 0.034-0.034 0.055z"></path>
<path fill="#c4674e" d="M3.96 9.165c0.581 0.274 1.168 0.54 1.754 0.796 0.563 0.248 1.131 0.496 1.726 0.66 0.287 0.081 0.594 0.157 0.894 0.104 0.222-0.039 0.425-0.151 0.581-0.311 0.159-0.162 0.274-0.371 0.321-0.595 0.029-0.13 0.018-0.266-0.005-0.397-0.070-0.378-0.3-0.72-0.633-0.911-0.050-0.029-0.102-0.052-0.156-0.076-0.039-0.016-0.055 0.047-0.018 0.063 0.362 0.151 0.623 0.465 0.722 0.84 0.034 0.13 0.052 0.269 0.036 0.402-0.021 0.193-0.117 0.389-0.237 0.54-0.138 0.17-0.323 0.297-0.534 0.357-0.279 0.076-0.571 0.018-0.845-0.055-0.576-0.149-1.126-0.381-1.671-0.618-0.568-0.248-1.131-0.501-1.694-0.762-0.070-0.034-0.141-0.065-0.211-0.099-0.034-0.013-0.065 0.044-0.029 0.060z"></path>
<path fill="#c4674e" d="M4.572 6.955c0.659 0.274 1.298 0.595 1.947 0.885 0.321 0.144 0.646 0.279 0.978 0.399 0.336 0.123 0.686 0.243 1.043 0.282 0.31 0.037 0.641-0.005 0.905-0.188 0.12-0.084 0.222-0.193 0.287-0.324 0.068-0.133 0.099-0.284 0.096-0.433 0-0.308-0.138-0.592-0.341-0.819-0.222-0.248-0.514-0.42-0.816-0.553-0.258-0.115-0.524-0.209-0.787-0.311-0.258-0.099-0.511-0.204-0.761-0.318-0.081-0.037-0.162-0.073-0.242-0.112-0.036-0.018-0.070 0.039-0.034 0.057 0.271 0.125 0.545 0.245 0.821 0.357 0.232 0.091 0.464 0.18 0.696 0.269 0.31 0.12 0.62 0.258 0.881 0.47 0.229 0.188 0.425 0.438 0.493 0.731 0.068 0.287 0.008 0.611-0.203 0.825s-0.521 0.297-0.816 0.292c-0.354-0.005-0.704-0.12-1.035-0.232s-0.654-0.243-0.972-0.381c-0.636-0.277-1.256-0.59-1.895-0.864-0.076-0.034-0.154-0.065-0.229-0.097-0.034-0.016-0.052 0.050-0.013 0.065z"></path>
<path fill="#c4674e" d="M7.215 13.899c0.096-0.198 0.136-0.425 0.11-0.645-0.013-0.107-0.039-0.214-0.081-0.316-0.036-0.089-0.083-0.206-0.183-0.237-0.039-0.013-0.057 0.050-0.018 0.063 0.044 0.013 0.070 0.057 0.091 0.097 0.023 0.044 0.044 0.089 0.063 0.136 0.034 0.094 0.057 0.191 0.065 0.29 0.018 0.198-0.018 0.399-0.104 0.579-0.018 0.039 0.039 0.073 0.057 0.034z"></path>
<path fill="#c4674e" d="M8.279 8.019c0.013-0.402 0.188-0.791 0.477-1.067 0.031-0.029-0.016-0.076-0.047-0.047-0.302 0.29-0.482 0.694-0.498 1.112 0.003 0.044 0.068 0.044 0.068 0.003z"></path>
<path fill="#c4674e" d="M8.654 7.041c0.146 0.042 0.292 0.091 0.425 0.167 0.107 0.060 0.206 0.149 0.227 0.277 0.021 0.125-0.036 0.253-0.128 0.337-0.096 0.091-0.232 0.133-0.362 0.144-0.18 0.013-0.357-0.037-0.529-0.086-0.039-0.010-0.057 0.052-0.018 0.063 0.302 0.089 0.665 0.164 0.933-0.055 0.104-0.086 0.175-0.219 0.172-0.357 0-0.144-0.083-0.258-0.196-0.337-0.068-0.047-0.143-0.084-0.219-0.115-0.094-0.039-0.19-0.073-0.289-0.102-0.039-0.010-0.055 0.052-0.016 0.065z"></path>
<path fill="#c4674e" d="M7.484 10.091c0.013-0.431 0.201-0.845 0.511-1.143 0.031-0.029-0.016-0.076-0.047-0.047-0.323 0.308-0.516 0.741-0.532 1.19 0 0.042 0.065 0.042 0.068 0z"></path>
<path fill="#c4674e" d="M7.888 9.042c0.154 0.044 0.31 0.099 0.451 0.177 0.117 0.065 0.227 0.162 0.248 0.303 0.018 0.133-0.042 0.269-0.138 0.357-0.107 0.099-0.253 0.144-0.394 0.154-0.193 0.013-0.381-0.039-0.563-0.091-0.039-0.010-0.057 0.052-0.018 0.063 0.318 0.094 0.704 0.175 0.988-0.052 0.115-0.091 0.19-0.235 0.19-0.384 0-0.154-0.091-0.277-0.211-0.363-0.073-0.052-0.154-0.089-0.235-0.123-0.099-0.042-0.201-0.078-0.302-0.107-0.039-0.010-0.057 0.052-0.016 0.065z"></path>
<path fill="#c4674e" d="M6.78 12.192c0.013-0.431 0.201-0.846 0.511-1.143 0.031-0.029-0.016-0.076-0.047-0.047-0.323 0.308-0.516 0.741-0.532 1.19 0 0.042 0.065 0.042 0.068 0z"></path>
<path fill="#c4674e" d="M7.184 11.14c0.154 0.044 0.31 0.099 0.451 0.177 0.117 0.065 0.227 0.162 0.248 0.303 0.018 0.133-0.042 0.269-0.138 0.357-0.107 0.099-0.253 0.144-0.394 0.154-0.193 0.013-0.381-0.039-0.563-0.091-0.039-0.010-0.057 0.052-0.018 0.063 0.318 0.094 0.704 0.175 0.988-0.052 0.115-0.091 0.19-0.235 0.19-0.384 0-0.154-0.091-0.277-0.211-0.363-0.073-0.052-0.154-0.089-0.235-0.123-0.099-0.042-0.201-0.078-0.302-0.107-0.039-0.010-0.057 0.055-0.016 0.065z"></path>
<path fill="#c4674e" d="M5.943 13.776c0.010-0.324 0.151-0.637 0.386-0.861 0.031-0.029-0.016-0.076-0.047-0.047-0.248 0.235-0.394 0.566-0.404 0.906 0 0.044 0.065 0.044 0.065 0.003z"></path>
<path fill="#c4674e" d="M6.24 12.988c0.115 0.034 0.232 0.073 0.336 0.133 0.086 0.050 0.169 0.12 0.185 0.224 0.016 0.099-0.031 0.204-0.104 0.269-0.081 0.073-0.19 0.104-0.295 0.112-0.143 0.008-0.282-0.029-0.42-0.070-0.039-0.010-0.057 0.052-0.018 0.063 0.245 0.070 0.54 0.133 0.756-0.042 0.089-0.070 0.146-0.18 0.146-0.295 0-0.117-0.068-0.214-0.162-0.282-0.12-0.086-0.271-0.136-0.412-0.175-0.036-0.013-0.052 0.050-0.013 0.063z"></path>
<path fill="#ffd62a" d="M14.173 10.989l-0.216-0.744-0.201 0.744-0.719 0.237 0.719 0.243 0.201 0.806 0.227-0.801 0.693-0.248-0.704-0.237z"></path>
<path fill="#ffd62a" d="M2.2 5.266l-0.211-0.728-0.198 0.725-0.704 0.235 0.704 0.235 0.198 0.791 0.222-0.785 0.68-0.24-0.691-0.232z"></path>
<path fill="#ffd62a" d="M15.575 9.076l-0.13-0.449-0.123 0.449-0.433 0.141 0.433 0.146 0.123 0.488 0.136-0.483 0.42-0.151-0.425-0.141z"></path>
<path fill="#ffd62a" d="M0.673 7.68l-0.128-0.438-0.12 0.438-0.425 0.141 0.425 0.141 0.12 0.478 0.133-0.475 0.409-0.144-0.414-0.141z"></path>
<path fill="#ffd62a" d="M8.905 2.046l-0.104-0.363-0.099 0.363-0.349 0.115 0.349 0.117 0.099 0.394 0.11-0.391 0.339-0.12-0.344-0.115z"></path>
<path fill="#ffd62a" d="M2.093 13.244l-0.104-0.363-0.099 0.363-0.349 0.117 0.349 0.117 0.099 0.391 0.109-0.389 0.339-0.12-0.344-0.117z"></path>
</svg>
